<svg xmlns="http://www.w3.org/2000/svg" viewBox="0 0 100 100"><rect x="14" y="17" width="72" height="66" rx="7" style="fill:#cce0fe"/><path d="M23.24,63.18c1.3-2.65,2.62-5.28,4-7.91s2.66-5.27,4-7.89A2.78,2.78,0,0,1,33,45.94a2.7,2.7,0,0,1,2.28.46l3.33,2.48L42,51.37a2.76,2.76,0,0,0,3.85-.55l6.41-8.55q3.2-4.27,6.38-8.56a2.63,2.63,0,0,1,2.46-1.06,2.78,2.78,0,0,1,2.21,1.6q3.41,7.26,6.79,14.51T76.8,63.29a2.69,2.69,0,0,1-.23,2.6,2.86,2.86,0,0,1-2.33,1.29q-12.12.19-24.24.19t-24.24-.24a2.87,2.87,0,0,1-2.35-1.33A2.63,2.63,0,0,1,23.24,63.18Z" style="fill:#73abfd"/><path d="M39.36,76.81a9.12,9.12,0,1,1,6.44-2.67A9.09,9.09,0,0,1,39.36,76.81Z" style="fill:#0067fb"/><path d="M29,28.84a9.13,9.13,0,1,1,6.44-2.68A9.09,9.09,0,0,1,29,28.84Z" style="fill:#79b4ff"/><path d="M85.73,50a9.12,9.12,0,1,1,6.44-2.67A9.09,9.09,0,0,1,85.73,50Z" style="fill:#0048b0"/></svg>