<?xml version="1.0" encoding="utf-8"?>
<!-- Generator: Adobe Illustrator 26.0.3, SVG Export Plug-In . SVG Version: 6.00 Build 0)  -->
<svg version="1.1" id="Livello_1" xmlns="http://www.w3.org/2000/svg" xmlns:xlink="http://www.w3.org/1999/xlink" x="0px" y="0px"
	 viewBox="0 0 100 100" style="enable-background:new 0 0 100 100;" xml:space="preserve">
<g>
	<g>
		<path style="fill:#FCECB8;" d="M83.8,18.9L66.6,34.7C70,38.6,72,43.6,72,49.1c0,12.1-9.8,22-22,22c-6.1,0-11.7-2.5-15.6-6.6
			L16.3,81.2c1.2,1.1,2.9,1.8,4.7,1.8h58c3.9,0,7-3.1,7-7V24C86,22,85.2,20.2,83.8,18.9z"/>
		<path style="fill:#F6CF45;" d="M28,49.1c0-12.1,9.8-22,22-22c6.7,0,12.6,3,16.6,7.6l17.2-15.8C82.6,17.7,80.9,17,79,17H21
			c-3.9,0-7,3.1-7,7v52c0,2,0.9,3.9,2.3,5.2l18.1-16.7C30.4,60.5,28,55.1,28,49.1z"/>
		<path style="fill:#F6CF45;" d="M50,71c12.1,0,22-9.8,22-22c0-5.5-2-10.5-5.3-14.3L34.4,64.5C38.3,68.5,43.9,71,50,71z"/>
		<path style="fill:#FCECB8;" d="M50,27.1c-12.1,0-22,9.8-22,22c0,6,2.4,11.4,6.3,15.4l32.3-29.7C62.6,30.1,56.7,27.1,50,27.1z"/>
	</g>
	<g>
		<path style="fill:#DAAB00;" d="M75,94.1H63.5c-1.4,0-2.8-0.5-3.8-1.5s-1.5-2.4-1.6-3.8V77.3c0-2.9,2.4-5.3,5.3-5.3l0,0H75
			c2.9,0,5.3,2.4,5.4,5.3l0,0v11.5c0,1.4-0.6,2.8-1.6,3.8C77.8,93.6,76.4,94.1,75,94.1z"/>
		<g>
			
				<polyline style="fill:none;stroke:#FCECB8;stroke-width:3.4577;stroke-linecap:round;stroke-linejoin:round;stroke-miterlimit:10;" points="
				63.9,83 67.5,86.6 74.6,79.4 			"/>
		</g>
	</g>
	<g>
		<path style="fill:#A98502;" d="M19.8,46.6H8.2c-1.4,0-2.8-0.5-3.8-1.5s-1.5-2.4-1.6-3.8V29.8c0-2.9,2.4-5.3,5.3-5.3l0,0h11.5
			c2.9,0,5.3,2.4,5.4,5.3l0,0v11.5c0,1.4-0.6,2.8-1.6,3.8C22.5,46.1,21.2,46.6,19.8,46.6z"/>
		<g>
			
				<line style="fill:none;stroke:#FCECB8;stroke-width:3;stroke-linecap:round;stroke-miterlimit:10;" x1="19.5" y1="30.1" x2="8.5" y2="41"/>
			
				<line style="fill:none;stroke:#FCECB8;stroke-width:3;stroke-linecap:round;stroke-miterlimit:10;" x1="19.5" y1="41" x2="8.5" y2="30.1"/>
		</g>
	</g>
</g>
</svg>
